# Blender v3.1.2 OBJ File: 'range.blend'
# www.blender.org
mtllib range.mtl
o Plane
v -1.000000 0.000000 1.000000
v 1.000000 0.000000 1.000000
v -1.000000 0.000000 -1.000000
v 1.000000 0.000000 -1.000000
v 0.000000 2.613497 0.000000
vt 0.000000 0.000000
vt 0.000000 1.000000
vt 1.000000 1.000000
vt 1.000000 0.000000
vt 1.000000 0.000000
vt 0.000000 1.000000
vt 1.000000 1.000000
vt 0.000000 0.000000
vn 0.0000 -1.0000 0.0000
vn 0.9340 0.3574 0.0000
vn -0.9340 0.3574 0.0000
vn 0.0000 0.3574 -0.9340
vn 0.0000 0.3574 0.9340
usemtl None
s off
f 1/1/1 3/2/1 4/3/1 2/4/1
f 2/4/2 4/3/2 5/5/2
f 3/2/3 1/1/3 5/6/3
f 4/3/4 3/2/4 5/7/4
f 1/1/5 2/4/5 5/8/5
